<svg xmlns="http://www.w3.org/2000/svg" viewBox="0 0 231.79 46.74"><g id="Ebene_2" data-name="Ebene 2"><g id="Ebene_2-2" data-name="Ebene 2"><path d="M60.91,28.27a8.68,8.68,0,0,1-3.36-2.67,8.57,8.57,0,0,1,3.66-12.75,11.37,11.37,0,0,1,9.95.39.92.92,0,0,0,.76,0,3.76,3.76,0,0,0,1.39-5.13c-.08-.14-.16-.29-.3-.52,1-.33,1.94-.65,2.89-.93.09,0,.27.15.35.27a4,4,0,0,1-.38,4.8,7.08,7.08,0,0,1-3.06,1.92l-.68.25a8.67,8.67,0,0,1,2.68,3.5,8.33,8.33,0,0,1-5.16,11.26,12.38,12.38,0,0,1-7.59.06.71.71,0,0,0-.87.23c-.65.76-1.36,1.46-2,2.24-.91,1.16-.46,2.19,1,2.38a8.46,8.46,0,0,0,1,0c2.86,0,5.72,0,8.57,0a10.93,10.93,0,0,1,4.3.75,5.62,5.62,0,0,1,2,8.83,9.25,9.25,0,0,1-5.22,3,22.59,22.59,0,0,1-11.14-.25,8.72,8.72,0,0,1-3.31-1.64c-2.65-2.14-2.13-5.48,1.06-6.69.54-.21,1.11-.3,1.73-.47,0,.14,0,.2,0,.23a4.59,4.59,0,0,0,1.19,7.81,13.89,13.89,0,0,0,5.84,1,13.9,13.9,0,0,0,6.19-1.21A4.76,4.76,0,0,0,75,42.15c.77-2.44-.19-4.49-2.69-5.08a17.36,17.36,0,0,0-3.67-.43c-2.8-.06-5.6,0-8.41,0a6,6,0,0,1-1.33-.17c-2.17-.56-2.82-2.06-2.89-3.9,0-.17.22-.41.4-.52A19.69,19.69,0,0,0,60.91,28.27Zm-1.09-7.65c.07.76.09,1.53.21,2.29a6.85,6.85,0,0,0,2.36,4.69,5.39,5.39,0,0,0,8.4-2.42A12.75,12.75,0,0,0,71,16.42a5.26,5.26,0,0,0-5.22-3.93c-2.52,0-4.3,1.29-5.26,3.87A12.82,12.82,0,0,0,59.82,20.62Z"/><path d="M111.73,17.39a7.18,7.18,0,0,1,2-3.26,7.81,7.81,0,0,1,12.06,1.46,11.82,11.82,0,0,1,2,5.9,16.91,16.91,0,0,1-1.22,8.43,9.85,9.85,0,0,1-8.79,6.13A8.83,8.83,0,0,1,112,34.74c-.44-.29-.83-.63-1.29-1,0,.16,0,.3,0,.43,0,2.5,0,5,0,7.49a13,13,0,0,0,.24,2.24c.19,1.1.63,1.53,2.21,2.3h-8.23a1.71,1.71,0,0,1,.32-.21A2.56,2.56,0,0,0,107,43.54a19.83,19.83,0,0,0,.13-2.3q0-11,0-22a22,22,0,0,0-.18-2.81,3.1,3.1,0,0,0-1.92-2.75,18.14,18.14,0,0,0,6-1.78c-.07.6-.17,1.08-.18,1.58-.08,3.73-.18,7.46-.21,11.19a43.05,43.05,0,0,0,.24,5.45c.26,2.07,1.07,3.95,3.14,4.88a6.28,6.28,0,0,0,8.14-2.52,13.16,13.16,0,0,0,1.73-5.65,20.51,20.51,0,0,0-.29-6.72,8.18,8.18,0,0,0-2.46-4.64,6,6,0,0,0-9,1.26C112,16.93,111.89,17.16,111.73,17.39Z"/><path d="M0,3.52H9.64s0,.1,0,.1C8,4.29,7.48,5.13,8.12,6.85a34.9,34.9,0,0,0,1.89,4c2,3.75,4,7.47,6,11.21,0,.1.12.19.23.37.3-.62.57-1.18.83-1.75,1.88-4,3.78-8,5.63-12A4.83,4.83,0,0,0,23.1,7a2.92,2.92,0,0,0-2.54-3.29.64.64,0,0,1-.38-.21h7.71l0,.08-.3.14A5,5,0,0,0,25,6.11c-1,1.83-2,3.7-2.9,5.58-1.79,3.69-3.54,7.4-5.29,11.11a2.65,2.65,0,0,0-.24,1.07c0,2.65.05,5.29.11,7.94A8.64,8.64,0,0,0,17,33.68a2.91,2.91,0,0,0,1.88,2.09H10.52c0-.06,0-.12,0-.12,1.65-.61,2-2.06,2-3.51.14-2.86.12-5.74.16-8.61a1.11,1.11,0,0,0-.15-.52C9.84,18,7.1,12.9,4.32,7.86a18.39,18.39,0,0,0-1.7-2.44,5,5,0,0,0-2.4-1.7L0,3.61Z"/><path d="M50.19,24.06a13.36,13.36,0,0,1-2.09,7.32c-2.26,3.37-5.53,4.76-9.5,4.71a10.7,10.7,0,0,1-7.61-3,11.54,11.54,0,0,1-3.31-7,13,13,0,0,1,1.78-9.07c2.49-3.91,6.16-5.47,10.73-5a11,11,0,0,1,9.66,9.26C50,22.2,50.08,23.13,50.19,24.06Zm-18.8.33c.05.61.08,1.55.19,2.48a12.52,12.52,0,0,0,2.08,5.93,6.2,6.2,0,0,0,10.08.36,9.78,9.78,0,0,0,1.7-3.28,20.29,20.29,0,0,0,.5-9.45A11.82,11.82,0,0,0,43.67,15a5.88,5.88,0,0,0-6.76-2.14,6.88,6.88,0,0,0-3.78,3.45A16.9,16.9,0,0,0,31.39,24.39Z"/><path d="M94,23.49l-4.14,1.18c-1.62.47-3.24.93-4.85,1.43a1.12,1.12,0,0,0-.68.55,5.76,5.76,0,0,0,.25,5.15,4.26,4.26,0,0,0,4,2.14A4.86,4.86,0,0,0,93,31.61c0-.06.1-.1.15-.16l.15.09a15,15,0,0,1-1,1.89A6.21,6.21,0,0,1,87,36.08a6.1,6.1,0,0,1-5.85-9,1.4,1.4,0,0,1,.73-.63Q87.61,24.67,93.36,23c.44-.13.63-.28.62-.78a21.45,21.45,0,0,0-.58-6c-.55-1.83-1.52-3.29-3.59-3.58A5.09,5.09,0,0,0,84,16a22.75,22.75,0,0,0-.83,3.42,8.69,8.69,0,0,1-.22,1.18l-.69-3c-.19-.8-.35-1.61-.57-2.4a.83.83,0,0,1,.35-1,10.85,10.85,0,0,1,4.84-2.14,10.38,10.38,0,0,1,5.81.5A7.05,7.05,0,0,1,97,17.73a20.47,20.47,0,0,1,.48,4.06c.09,3.11,0,6.23.1,9.34a7.75,7.75,0,0,0,.29,1.71,2.32,2.32,0,0,0,1.59,1.72L94,36Z"/><path d="M192.12,1.71a17.54,17.54,0,0,0,6-1.71c-.08.77-.18,1.43-.21,2.09-.08,1.84-.18,3.67-.18,5.51q0,11.4,0,22.8a22.67,22.67,0,0,0,.19,3,2.41,2.41,0,0,0,1.85,2.23,2.39,2.39,0,0,1,.34.18h-8s0-.1,0-.1c1.71-.52,2-1.92,2.08-3.42,0-.58,0-1.16,0-1.74q0-12.16,0-24.32a11.49,11.49,0,0,0-.37-2.6A2.72,2.72,0,0,0,192.12,1.71Z"/><path d="M186.48,35.79h-8s0-.1,0-.11c1.79-.53,2.13-2,2.17-3.54.07-2.08,0-4.16,0-6.25,0-1.91,0-3.82,0-5.74a7.92,7.92,0,0,0-.75-3.31A5,5,0,0,0,174.67,14c-2.26.24-3.33,1-5.15,3.22.07-.16.11-.34.19-.5a8.12,8.12,0,0,1,7.85-4.81,6.64,6.64,0,0,1,6.52,6.17c.12,1.45.12,2.92.13,4.38,0,3,0,6.08,0,9.12a13.1,13.1,0,0,0,.22,2.06,2.3,2.3,0,0,0,1.66,1.88,1.21,1.21,0,0,1,.2.09S186.37,35.68,186.48,35.79Z"/><path d="M231.79,31.91a4.5,4.5,0,0,1-2,3.11,6,6,0,0,1-9.48-3.87,15.75,15.75,0,0,1-.23-2.74c0-5,0-9.95,0-14.92v-.75h-1.55l-.08-.18a14.6,14.6,0,0,0,4.85-4.26l.14,0v3.81h7.1l0,.55H223.5c0,.2,0,.36,0,.52,0,5.17,0,10.35,0,15.53a10.11,10.11,0,0,0,.53,3.08,3.54,3.54,0,0,0,3.9,2.46A4.18,4.18,0,0,0,231.79,31.91Z"/><path d="M133.19,13.67c1.16-.23,2.18-.37,3.17-.64s1.94-.67,2.92-1c-.06.64-.17,1.3-.19,2-.08,3.37-.16,6.75-.2,10.12,0,1.45,0,2.9.09,4.33a6,6,0,0,0,2,4.4,5.89,5.89,0,0,0,7.43-.3c.65-.57,1.18-1.27,1.84-1.9-.28.52-.52,1.05-.83,1.55a8,8,0,0,1-10.27,3.09,6.29,6.29,0,0,1-3.39-4.51,12.79,12.79,0,0,1-.26-2.62c0-2.85,0-5.71,0-8.56a29.92,29.92,0,0,0-.21-3.14A3.07,3.07,0,0,0,133.19,13.67Z"/><path d="M170.68,35.8h-8a2.44,2.44,0,0,1,.39-.23,2.46,2.46,0,0,0,1.74-2.21,21.2,21.2,0,0,0,.18-2.52q0-6.66-.06-13.33a7.69,7.69,0,0,0-.26-1.72,2.88,2.88,0,0,0-1.79-2.13,19.53,19.53,0,0,0,6-1.75c-.08.9-.19,1.74-.22,2.57-.07,1.42-.13,2.85-.13,4.27q0,6.56,0,13.11a9.74,9.74,0,0,0,.26,1.94,2.35,2.35,0,0,0,1.65,1.78,1.66,1.66,0,0,1,.27.13Z"/><path d="M155.07,11.89c-.08.6-.17,1.1-.2,1.59-.33,6-.27,12-.09,17.94a6.29,6.29,0,0,0,.37,1.75,2.28,2.28,0,0,0,1.55,1.42L151.16,36v-.55c0-5.75,0-11.51,0-17.27a11.2,11.2,0,0,0-.25-2.23,2.92,2.92,0,0,0-1.83-2.29A18.49,18.49,0,0,0,155.07,11.89Z"/><path d="M202.38,21.61l2.17,2.52,8.18,9.45a6.58,6.58,0,0,0,2.91,2.21H209.9c-.42-.6-.73-1.13-1.12-1.58q-4.41-5-8.86-10l-.47-.56c.56-.52,1.11-1,1.64-1.55,1.61-1.58,3.23-3.15,4.79-4.76a7,7,0,0,0,1.31-1.81A1.94,1.94,0,0,0,206,12.61a8.25,8.25,0,0,1-1-.38h8.34a2.11,2.11,0,0,1-.26.18A12.16,12.16,0,0,0,209.14,15c-2.2,2.11-4.37,4.23-6.55,6.35Z"/></g></g></svg>